# xmcd
#
# Track frame offsets: 
#        150
#        13336
#        32996
#        51127
#        66390
#        81878
#        100040
#        113027
#        129551
#        142506
#
# Disc length: 2100 seconds
#
# Revision: 0
# Processed by: cddbd v1.5.2PL0 Copyright (c) Steve Scherf et al.
# Submitted via: ExactAudioCopy v1.3
#
DISCID=8208320a
DTITLE=Brody Buster's One Man Band - Damn! I Spilled the Blues
DYEAR=2019
DGENRE=Blues
TTITLE0=Old Dog Blues
TTITLE1=Bad News
TTITLE2=2029
TTITLE3=The Wind
TTITLE4=The Reason
TTITLE5=Alligator Blues [Explicit]
TTITLE6=Like 'Em Like That
TTITLE7=The Hustle
TTITLE8=Week Long
TTITLE9=This Time I Got the Blues
EXTD=
EXTT0=
EXTT1=
EXTT2=
EXTT3=
EXTT4=
EXTT5=
EXTT6=
EXTT7=
EXTT8=
EXTT9=
PLAYORDER=
